<svg fill="none" height="24" viewBox="0 0 24 24" width="24" xmlns="http://www.w3.org/2000/svg">
  <path clip-rule="evenodd"
        d="M20.9999 19C21.2547 19.0003 21.4999 19.0979 21.6852 19.2728C21.8706 19.4478 21.9821 19.687 21.997 19.9414C22.012 20.1958 21.9292 20.4464 21.7656 20.6418C21.602 20.8373 21.37 20.9629 21.1169 20.993L20.9999 21H2.99987C2.74499 20.9997 2.49984 20.9021 2.3145 20.7272C2.12916 20.5522 2.01763 20.313 2.0027 20.0586C1.98776 19.8042 2.07054 19.5536 2.23413 19.3582C2.39772 19.1627 2.62977 19.0371 2.88287 19.007L2.99987 19H20.9999ZM18.9999 4C19.5044 3.99984 19.9904 4.19041 20.3604 4.5335C20.7304 4.87659 20.957 5.34684 20.9949 5.85L20.9999 6V16C21 16.5046 20.8095 16.9906 20.4664 17.3605C20.1233 17.7305 19.653 17.9572 19.1499 17.995L18.9999 18H4.99987C4.49529 18.0002 4.0093 17.8096 3.63932 17.4665C3.26934 17.1234 3.04271 16.6532 3.00487 16.15L2.99987 16V6C2.99971 5.49542 3.19028 5.00943 3.53337 4.63945C3.87646 4.26947 4.34671 4.04284 4.84987 4.005L4.99987 4H18.9999ZM18.9999 6H4.99987V16H18.9999V6Z"
        fill="currentColor"
        fill-rule="evenodd"/>
</svg>
