<svg fill="none" height="24" viewBox="0 0 24 24" width="24" xmlns="http://www.w3.org/2000/svg">
  <path
    d="M8.94 16.56C9.23 16.85 9.62 17 10 17C10.38 17 10.77 16.85 11.06 16.56L16.56 11.06C17.15 10.48 17.15 9.52998 16.56 8.93998L8.32 0.69998C8.22742 0.607398 8.11751 0.533958 7.99654 0.483853C7.87558 0.433748 7.74593 0.407959 7.615 0.407959C7.35057 0.407959 7.09698 0.513002 6.91 0.69998C6.72302 0.886957 6.61798 1.14055 6.61798 1.40498C6.61798 1.66941 6.72302 1.923 6.91 2.10998L8.59 3.78998L3.44 8.93998C3.29971 9.07857 3.18833 9.24362 3.1123 9.42558C3.03628 9.60754 2.99714 9.80278 2.99714 9.99998C2.99714 10.1972 3.03628 10.3924 3.1123 10.5744C3.18833 10.7563 3.29971 10.9214 3.44 11.06L8.94 16.56ZM10 5.20998L14.79 9.99998H5.21L10 5.20998ZM19 17C20.1 17 21 16.1 21 15C21 13.67 19 11.5 19 11.5C19 11.5 17 13.67 17 15C17 16.1 17.9 17 19 17ZM20 20H4C2.9 20 2 20.9 2 22C2 23.1 2.9 24 4 24H20C21.1 24 22 23.1 22 22C22 20.9 21.1 20 20 20Z"
    fill="currentColor"/>
</svg>
